<mxfile host="app.diagrams.net" modified="2023-01-15T18:41:17.937Z" agent="5.0 (Windows NT 10.0; Win64; x64) AppleWebKit/537.36 (KHTML, like Gecko) Chrome/109.0.0.0 Safari/537.36" version="20.8.5" etag="Z6ae2sggaJjAdWwhX4Up" type="github">
  <diagram id="UxFpYuPWefZoFwc76OD0" name="BIG O">
    <mxGraphModel dx="1130" dy="711" grid="1" gridSize="10" guides="1" tooltips="1" connect="1" arrows="1" fold="1" page="1" pageScale="1" pageWidth="827" pageHeight="1169" math="0" shadow="0">
      <root>
        <mxCell id="0" />
        <mxCell id="1" parent="0" />
        <mxCell id="ep7bjDgZgQVrMPLjpOlv-1" value="O(N)" style="rounded=0;whiteSpace=wrap;html=1;" vertex="1" parent="1">
          <mxGeometry x="200" y="100" width="120" height="60" as="geometry" />
        </mxCell>
        <mxCell id="ep7bjDgZgQVrMPLjpOlv-2" value="O(1)" style="rounded=0;whiteSpace=wrap;html=1;" vertex="1" parent="1">
          <mxGeometry x="380" y="100" width="120" height="60" as="geometry" />
        </mxCell>
        <mxCell id="ep7bjDgZgQVrMPLjpOlv-3" value="-" style="rounded=0;whiteSpace=wrap;html=1;" vertex="1" parent="1">
          <mxGeometry x="900" y="100" width="120" height="60" as="geometry" />
        </mxCell>
        <mxCell id="ep7bjDgZgQVrMPLjpOlv-4" value="-" style="rounded=0;whiteSpace=wrap;html=1;" vertex="1" parent="1">
          <mxGeometry x="730" y="100" width="120" height="60" as="geometry" />
        </mxCell>
        <mxCell id="ep7bjDgZgQVrMPLjpOlv-5" value="-" style="rounded=0;whiteSpace=wrap;html=1;" vertex="1" parent="1">
          <mxGeometry x="560" y="100" width="120" height="60" as="geometry" />
        </mxCell>
        <mxCell id="ep7bjDgZgQVrMPLjpOlv-7" value="O(1)" style="rounded=0;whiteSpace=wrap;html=1;" vertex="1" parent="1">
          <mxGeometry x="200" y="200" width="120" height="60" as="geometry" />
        </mxCell>
        <mxCell id="ep7bjDgZgQVrMPLjpOlv-8" value="O(N)" style="rounded=0;whiteSpace=wrap;html=1;" vertex="1" parent="1">
          <mxGeometry x="380" y="200" width="120" height="60" as="geometry" />
        </mxCell>
        <mxCell id="ep7bjDgZgQVrMPLjpOlv-9" value="-" style="rounded=0;whiteSpace=wrap;html=1;" vertex="1" parent="1">
          <mxGeometry x="900" y="200" width="120" height="60" as="geometry" />
        </mxCell>
        <mxCell id="ep7bjDgZgQVrMPLjpOlv-10" value="-" style="rounded=0;whiteSpace=wrap;html=1;" vertex="1" parent="1">
          <mxGeometry x="730" y="200" width="120" height="60" as="geometry" />
        </mxCell>
        <mxCell id="ep7bjDgZgQVrMPLjpOlv-11" value="-" style="rounded=0;whiteSpace=wrap;html=1;" vertex="1" parent="1">
          <mxGeometry x="560" y="200" width="120" height="60" as="geometry" />
        </mxCell>
        <mxCell id="ep7bjDgZgQVrMPLjpOlv-12" value="O(N)" style="rounded=0;whiteSpace=wrap;html=1;" vertex="1" parent="1">
          <mxGeometry x="200" y="300" width="120" height="60" as="geometry" />
        </mxCell>
        <mxCell id="ep7bjDgZgQVrMPLjpOlv-13" value="O(1)" style="rounded=0;whiteSpace=wrap;html=1;" vertex="1" parent="1">
          <mxGeometry x="380" y="300" width="120" height="60" as="geometry" />
        </mxCell>
        <mxCell id="ep7bjDgZgQVrMPLjpOlv-14" value="-" style="rounded=0;whiteSpace=wrap;html=1;" vertex="1" parent="1">
          <mxGeometry x="900" y="300" width="120" height="60" as="geometry" />
        </mxCell>
        <mxCell id="ep7bjDgZgQVrMPLjpOlv-15" value="-" style="rounded=0;whiteSpace=wrap;html=1;" vertex="1" parent="1">
          <mxGeometry x="730" y="300" width="120" height="60" as="geometry" />
        </mxCell>
        <mxCell id="ep7bjDgZgQVrMPLjpOlv-16" value="-" style="rounded=0;whiteSpace=wrap;html=1;" vertex="1" parent="1">
          <mxGeometry x="560" y="300" width="120" height="60" as="geometry" />
        </mxCell>
        <mxCell id="ep7bjDgZgQVrMPLjpOlv-17" value="O(N)" style="rounded=0;whiteSpace=wrap;html=1;" vertex="1" parent="1">
          <mxGeometry x="200" y="400" width="120" height="60" as="geometry" />
        </mxCell>
        <mxCell id="ep7bjDgZgQVrMPLjpOlv-18" value="O(1)" style="rounded=0;whiteSpace=wrap;html=1;" vertex="1" parent="1">
          <mxGeometry x="380" y="400" width="120" height="60" as="geometry" />
        </mxCell>
        <mxCell id="ep7bjDgZgQVrMPLjpOlv-19" value="O(1) / O(log(N))" style="rounded=0;whiteSpace=wrap;html=1;" vertex="1" parent="1">
          <mxGeometry x="900" y="400" width="120" height="60" as="geometry" />
        </mxCell>
        <mxCell id="ep7bjDgZgQVrMPLjpOlv-20" value="O(log(N))" style="rounded=0;whiteSpace=wrap;html=1;" vertex="1" parent="1">
          <mxGeometry x="730" y="400" width="120" height="60" as="geometry" />
        </mxCell>
        <mxCell id="ep7bjDgZgQVrMPLjpOlv-21" value="O(1) / O(log(N))" style="rounded=0;whiteSpace=wrap;html=1;" vertex="1" parent="1">
          <mxGeometry x="560" y="400" width="120" height="60" as="geometry" />
        </mxCell>
        <mxCell id="ep7bjDgZgQVrMPLjpOlv-22" value="O(N)" style="rounded=0;whiteSpace=wrap;html=1;" vertex="1" parent="1">
          <mxGeometry x="200" y="500" width="120" height="60" as="geometry" />
        </mxCell>
        <mxCell id="ep7bjDgZgQVrMPLjpOlv-23" value="O(N)" style="rounded=0;whiteSpace=wrap;html=1;" vertex="1" parent="1">
          <mxGeometry x="380" y="500" width="120" height="60" as="geometry" />
        </mxCell>
        <mxCell id="ep7bjDgZgQVrMPLjpOlv-24" value="O(1) / O(log(N))" style="rounded=0;whiteSpace=wrap;html=1;" vertex="1" parent="1">
          <mxGeometry x="900" y="500" width="120" height="60" as="geometry" />
        </mxCell>
        <mxCell id="ep7bjDgZgQVrMPLjpOlv-25" value="O(log(N))" style="rounded=0;whiteSpace=wrap;html=1;" vertex="1" parent="1">
          <mxGeometry x="730" y="500" width="120" height="60" as="geometry" />
        </mxCell>
        <mxCell id="ep7bjDgZgQVrMPLjpOlv-26" value="O(1) / O(log(N))" style="rounded=0;whiteSpace=wrap;html=1;" vertex="1" parent="1">
          <mxGeometry x="560" y="500" width="120" height="60" as="geometry" />
        </mxCell>
        <mxCell id="ep7bjDgZgQVrMPLjpOlv-27" value="O(1)" style="rounded=0;whiteSpace=wrap;html=1;" vertex="1" parent="1">
          <mxGeometry x="200" y="600" width="120" height="60" as="geometry" />
        </mxCell>
        <mxCell id="ep7bjDgZgQVrMPLjpOlv-28" value="O(1)" style="rounded=0;whiteSpace=wrap;html=1;" vertex="1" parent="1">
          <mxGeometry x="380" y="600" width="120" height="60" as="geometry" />
        </mxCell>
        <mxCell id="ep7bjDgZgQVrMPLjpOlv-29" value="O(1)" style="rounded=0;whiteSpace=wrap;html=1;" vertex="1" parent="1">
          <mxGeometry x="900" y="600" width="120" height="60" as="geometry" />
        </mxCell>
        <mxCell id="ep7bjDgZgQVrMPLjpOlv-30" value="O(log(N))" style="rounded=0;whiteSpace=wrap;html=1;" vertex="1" parent="1">
          <mxGeometry x="730" y="600" width="120" height="60" as="geometry" />
        </mxCell>
        <mxCell id="ep7bjDgZgQVrMPLjpOlv-31" value="O(1)" style="rounded=0;whiteSpace=wrap;html=1;" vertex="1" parent="1">
          <mxGeometry x="560" y="600" width="120" height="60" as="geometry" />
        </mxCell>
        <mxCell id="ep7bjDgZgQVrMPLjpOlv-32" value="Вставка элемента&amp;nbsp;&lt;br&gt;с указанием позиции" style="rounded=0;whiteSpace=wrap;html=1;" vertex="1" parent="1">
          <mxGeometry x="40" y="100" width="120" height="60" as="geometry" />
        </mxCell>
        <mxCell id="ep7bjDgZgQVrMPLjpOlv-33" value="Получение элемента&lt;br&gt;по индексу" style="rounded=0;whiteSpace=wrap;html=1;" vertex="1" parent="1">
          <mxGeometry x="40" y="200" width="120" height="60" as="geometry" />
        </mxCell>
        <mxCell id="ep7bjDgZgQVrMPLjpOlv-34" value="Удаление элемента по индексу" style="rounded=0;whiteSpace=wrap;html=1;" vertex="1" parent="1">
          <mxGeometry x="40" y="300" width="120" height="60" as="geometry" />
        </mxCell>
        <mxCell id="ep7bjDgZgQVrMPLjpOlv-35" value="Удаление элемента&amp;nbsp;&lt;br&gt;(не по индексу)" style="rounded=0;whiteSpace=wrap;html=1;" vertex="1" parent="1">
          <mxGeometry x="40" y="400" width="120" height="60" as="geometry" />
        </mxCell>
        <mxCell id="ep7bjDgZgQVrMPLjpOlv-36" value="Contains" style="rounded=0;whiteSpace=wrap;html=1;" vertex="1" parent="1">
          <mxGeometry x="40" y="500" width="120" height="60" as="geometry" />
        </mxCell>
        <mxCell id="ep7bjDgZgQVrMPLjpOlv-37" value="Вставка элемента без указания позиции" style="rounded=0;whiteSpace=wrap;html=1;" vertex="1" parent="1">
          <mxGeometry x="40" y="600" width="120" height="60" as="geometry" />
        </mxCell>
        <mxCell id="ep7bjDgZgQVrMPLjpOlv-38" value="ArrayList" style="rounded=0;whiteSpace=wrap;html=1;" vertex="1" parent="1">
          <mxGeometry x="200" width="120" height="60" as="geometry" />
        </mxCell>
        <mxCell id="ep7bjDgZgQVrMPLjpOlv-39" value="LinkedList" style="rounded=0;whiteSpace=wrap;html=1;" vertex="1" parent="1">
          <mxGeometry x="380" width="120" height="60" as="geometry" />
        </mxCell>
        <mxCell id="ep7bjDgZgQVrMPLjpOlv-40" value="HashMap" style="rounded=0;whiteSpace=wrap;html=1;" vertex="1" parent="1">
          <mxGeometry x="900" width="120" height="60" as="geometry" />
        </mxCell>
        <mxCell id="ep7bjDgZgQVrMPLjpOlv-41" value="TreeSet" style="rounded=0;whiteSpace=wrap;html=1;" vertex="1" parent="1">
          <mxGeometry x="730" width="120" height="60" as="geometry" />
        </mxCell>
        <mxCell id="ep7bjDgZgQVrMPLjpOlv-42" value="HashSet" style="rounded=0;whiteSpace=wrap;html=1;" vertex="1" parent="1">
          <mxGeometry x="560" width="120" height="60" as="geometry" />
        </mxCell>
        <mxCell id="ep7bjDgZgQVrMPLjpOlv-43" value="&lt;font style=&quot;font-size: 18px;&quot;&gt;Big O&amp;nbsp; For algorithm&lt;/font&gt;" style="text;html=1;strokeColor=none;fillColor=none;align=center;verticalAlign=middle;whiteSpace=wrap;rounded=0;" vertex="1" parent="1">
          <mxGeometry x="1550" y="40" width="200" height="30" as="geometry" />
        </mxCell>
        <mxCell id="ep7bjDgZgQVrMPLjpOlv-44" value="InsertionSort" style="rounded=0;whiteSpace=wrap;html=1;" vertex="1" parent="1">
          <mxGeometry x="1320" y="140" width="120" height="60" as="geometry" />
        </mxCell>
        <mxCell id="ep7bjDgZgQVrMPLjpOlv-45" value="MergeSort" style="rounded=0;whiteSpace=wrap;html=1;" vertex="1" parent="1">
          <mxGeometry x="1500" y="140" width="120" height="60" as="geometry" />
        </mxCell>
        <mxCell id="ep7bjDgZgQVrMPLjpOlv-46" value="ShellSort" style="rounded=0;whiteSpace=wrap;html=1;" vertex="1" parent="1">
          <mxGeometry x="2020" y="140" width="120" height="60" as="geometry" />
        </mxCell>
        <mxCell id="ep7bjDgZgQVrMPLjpOlv-47" value="SelectionSort" style="rounded=0;whiteSpace=wrap;html=1;" vertex="1" parent="1">
          <mxGeometry x="1850" y="140" width="120" height="60" as="geometry" />
        </mxCell>
        <mxCell id="ep7bjDgZgQVrMPLjpOlv-48" value="QuickSort" style="rounded=0;whiteSpace=wrap;html=1;" vertex="1" parent="1">
          <mxGeometry x="1680" y="140" width="120" height="60" as="geometry" />
        </mxCell>
        <mxCell id="ep7bjDgZgQVrMPLjpOlv-49" value="BubleSort" style="rounded=0;whiteSpace=wrap;html=1;" vertex="1" parent="1">
          <mxGeometry x="1160" y="140" width="120" height="60" as="geometry" />
        </mxCell>
        <mxCell id="ep7bjDgZgQVrMPLjpOlv-50" value="O(N&lt;sup style=&quot;border-color: var(--border-color);&quot;&gt;2&lt;/sup&gt;)" style="rounded=0;whiteSpace=wrap;html=1;" vertex="1" parent="1">
          <mxGeometry x="1320" y="240" width="120" height="60" as="geometry" />
        </mxCell>
        <mxCell id="ep7bjDgZgQVrMPLjpOlv-51" value="O(N log N)" style="rounded=0;whiteSpace=wrap;html=1;" vertex="1" parent="1">
          <mxGeometry x="1500" y="240" width="120" height="60" as="geometry" />
        </mxCell>
        <mxCell id="ep7bjDgZgQVrMPLjpOlv-52" value="O(log&lt;sub&gt;2&lt;/sub&gt;N)" style="rounded=0;whiteSpace=wrap;html=1;" vertex="1" parent="1">
          <mxGeometry x="2020" y="240" width="120" height="60" as="geometry" />
        </mxCell>
        <mxCell id="ep7bjDgZgQVrMPLjpOlv-53" value="O(N&lt;sup style=&quot;border-color: var(--border-color);&quot;&gt;2&lt;/sup&gt;)" style="rounded=0;whiteSpace=wrap;html=1;" vertex="1" parent="1">
          <mxGeometry x="1850" y="240" width="120" height="60" as="geometry" />
        </mxCell>
        <mxCell id="ep7bjDgZgQVrMPLjpOlv-54" value="O(N log N)" style="rounded=0;whiteSpace=wrap;html=1;" vertex="1" parent="1">
          <mxGeometry x="1680" y="240" width="120" height="60" as="geometry" />
        </mxCell>
        <mxCell id="ep7bjDgZgQVrMPLjpOlv-55" value="O(N&lt;sup&gt;2&lt;/sup&gt;)" style="rounded=0;whiteSpace=wrap;html=1;" vertex="1" parent="1">
          <mxGeometry x="1160" y="240" width="120" height="60" as="geometry" />
        </mxCell>
        <mxCell id="ep7bjDgZgQVrMPLjpOlv-56" value="" style="shape=image;verticalLabelPosition=bottom;labelBackgroundColor=default;verticalAlign=top;aspect=fixed;imageAspect=0;image=https://res.cloudinary.com/practicaldev/image/fetch/s--ark_FZG1--/c_limit%2Cf_auto%2Cfl_progressive%2Cq_auto%2Cw_880/https://thepracticaldev.s3.amazonaws.com/i/1omv0tmikzeaj24z8ps2.jpeg;" vertex="1" parent="1">
          <mxGeometry x="1090" y="335" width="524.68" height="349.12" as="geometry" />
        </mxCell>
        <mxCell id="ep7bjDgZgQVrMPLjpOlv-57" value="" style="shape=image;verticalLabelPosition=bottom;labelBackgroundColor=default;verticalAlign=top;aspect=fixed;imageAspect=0;image=https://miro.medium.com/max/1280/1*jK2RSXJcfpRm35GARiGz1w.png;" vertex="1" parent="1">
          <mxGeometry x="1654" y="335" width="520" height="390" as="geometry" />
        </mxCell>
      </root>
    </mxGraphModel>
  </diagram>
</mxfile>
